<?xml version="1.0" standalone="no"?>
<!DOCTYPE svg PUBLIC "-//W3C//DTD SVG 20010904//EN"
 "http://www.w3.org/TR/2001/REC-SVG-20010904/DTD/svg10.dtd">
<svg version="1.0" xmlns="http://www.w3.org/2000/svg"
 width="256.000000pt" height="256.000000pt" viewBox="0 0 256.000000 256.000000"
 preserveAspectRatio="xMidYMid meet">

<g transform="translate(0.000000,256.000000) scale(0.100000,-0.100000)"
fill="#000000" stroke="none">
<path d="M910 2546 c-412 -76 -738 -379 -835 -774 -24 -100 -33 -229 -23 -342
55 -639 693 -1074 1313 -895 86 25 221 87 277 126 l27 19 318 -330 c346 -360
353 -365 431 -342 47 14 81 49 91 94 12 57 -3 96 -61 157 -30 31 -172 179
-316 328 l-263 273 56 79 c184 263 233 597 133 906 -109 337 -382 592 -727
682 -120 31 -308 39 -421 19z m315 -271 c347 -72 593 -356 612 -705 17 -314
-148 -593 -430 -730 -113 -54 -199 -73 -332 -73 -289 0 -539 153 -674 412 -94
182 -110 386 -47 586 66 207 248 397 455 476 127 48 285 61 416 34z"/>
</g>
</svg>
